<svg width="32" height="32" viewBox="0 0 32 32" fill="none" xmlns="http://www.w3.org/2000/svg">
  <!-- Background circle -->
  <rect width="32" height="32" rx="8" fill="#1e40af"/>
  
  <!-- BookOpen icon (main) -->
  <path d="M4 6C4 4.89543 4.89543 4 6 4H12C13.1046 4 14 4.89543 14 6V22C14 23.1046 13.1046 24 12 24H6C4.89543 24 4 23.1046 4 22V6Z" fill="white"/>
  <path d="M14 4H18C19.1046 4 20 4.89543 20 6V22C20 23.1046 19.1046 24 18 24H14V4Z" fill="white"/>
  <path d="M8 8H10M8 12H10M8 16H10" stroke="#1e40af" stroke-width="1" stroke-linecap="round"/>
  
  <!-- Shield icon (overlay) -->
  <path d="M20 6L24 8V18C24 22.5 21.5 26.5 16 28C10.5 26.5 8 22.5 8 18V8L12 6" fill="#10b981" stroke="#10b981" stroke-width="1.5" stroke-linejoin="round"/>
  <path d="M14 18L16.5 20.5L22 15" stroke="white" stroke-width="2" stroke-linecap="round" stroke-linejoin="round"/>
</svg>
